<?xml version="1.0" standalone="no"?>
<!DOCTYPE svg PUBLIC "-//W3C//DTD SVG 20010904//EN"
 "http://www.w3.org/TR/2001/REC-SVG-20010904/DTD/svg10.dtd">
<svg version="1.0" xmlns="http://www.w3.org/2000/svg"
 width="1024.000000pt" height="1024.000000pt" viewBox="0 0 1024.000000 1024.000000"
 preserveAspectRatio="xMidYMid meet">
<metadata>
Created by potrace 1.14, written by Peter Selinger 2001-2017
</metadata>
<g transform="translate(0.000000,1024.000000) scale(0.100000,-0.100000)"
fill="#000000" stroke="none">
<path d="M1670 10225 c-438 -64 -816 -258 -1125 -576 -274 -283 -440 -604
-522 -1009 -16 -79 -17 -316 -21 -3460 -2 -2466 0 -3401 8 -3470 53 -446 253
-847 581 -1165 283 -274 604 -440 1009 -522 79 -16 316 -17 3460 -21 2466 -2
3401 0 3470 8 446 53 847 253 1165 581 274 283 440 604 522 1009 16 79 17 316
21 3460 2 2466 0 3401 -8 3470 -53 446 -253 847 -581 1165 -283 274 -604 440
-1009 522 -79 16 -314 17 -3485 19 -2678 2 -3418 -1 -3485 -11z m3804 -2061
c563 -62 1113 -293 1566 -654 137 -110 363 -336 474 -475 371 -466 591 -1002
657 -1605 17 -154 14 -500 -5 -659 -70 -581 -294 -1118 -656 -1571 -110 -137
-336 -363 -475 -474 -466 -371 -1002 -591 -1605 -657 -154 -17 -500 -14 -659
5 -581 70 -1118 294 -1571 656 -137 110 -363 336 -474 475 -371 466 -591 1002
-657 1605 -17 154 -14 500 5 659 70 581 294 1118 656 1571 110 137 336 363
475 474 515 410 1125 639 1790 670 113 5 340 -4 479 -20z"/>
<path d="M4571 6094 c-103 -28 -181 -74 -267 -159 -87 -86 -131 -160 -159
-270 -22 -88 -22 -1003 0 -1090 28 -107 74 -184 160 -271 86 -87 160 -131 270
-159 88 -22 1003 -22 1090 0 107 28 184 74 271 160 87 86 131 160 159 270 22
88 22 1003 0 1090 -28 107 -74 184 -160 271 -86 87 -160 131 -270 159 -85 22
-1012 21 -1094 -1z"/>
</g>
</svg>
