<?xml version="1.0" standalone="no"?>
<!DOCTYPE svg PUBLIC "-//W3C//DTD SVG 20010904//EN"
 "http://www.w3.org/TR/2001/REC-SVG-20010904/DTD/svg10.dtd">
<svg version="1.0" xmlns="http://www.w3.org/2000/svg"
 width="1024.000000pt" height="1024.000000pt" viewBox="0 0 1024.000000 1024.000000"
 preserveAspectRatio="xMidYMid meet">
<metadata>
Created by potrace 1.14, written by Peter Selinger 2001-2017
</metadata>
<g transform="translate(0.000000,1024.000000) scale(0.100000,-0.100000)"
fill="#000000" stroke="none">
<path d="M4835 10234 c-27 -2 -115 -8 -195 -14 -1086 -81 -2095 -478 -2887
-1138 -1124 -936 -1752 -2359 -1753 -3967 0 -1080 288 -2089 837 -2929 622
-952 1576 -1645 2713 -1971 792 -227 1695 -275 2538 -134 928 154 1760 537
2448 1125 135 116 413 395 525 529 470 559 810 1222 999 1950 255 979 236
2098 -51 3053 -204 678 -527 1274 -975 1798 -116 135 -395 413 -529 525 -786
661 -1738 1047 -2845 1154 -154 15 -709 28 -825 19z m685 -1889 c1278 -164
2204 -1065 2474 -2405 58 -285 70 -428 71 -795 0 -353 -6 -428 -46 -582 -44
-168 -119 -277 -227 -330 -45 -22 -73 -28 -148 -31 -172 -8 -303 30 -854 248
-427 169 -635 241 -868 299 -315 79 -513 104 -812 104 -507 0 -900 -96 -1695
-413 -519 -207 -652 -246 -820 -238 -228 10 -338 143 -401 483 -16 85 -19 152
-19 445 0 428 21 620 105 965 197 806 631 1438 1262 1841 129 83 368 200 518
254 220 80 532 147 785 170 144 12 528 4 675 -15z"/>
</g>
</svg>
