<?xml version="1.0" standalone="no"?>
<!DOCTYPE svg PUBLIC "-//W3C//DTD SVG 20010904//EN"
 "http://www.w3.org/TR/2001/REC-SVG-20010904/DTD/svg10.dtd">
<svg version="1.0" xmlns="http://www.w3.org/2000/svg"
 width="1536.000000pt" height="1536.000000pt" viewBox="0 0 1536.000000 1536.000000"
 preserveAspectRatio="xMidYMid meet">
<metadata>
Created by potrace 1.14, written by Peter Selinger 2001-2017
</metadata>
<g transform="translate(0.000000,1536.000000) scale(0.100000,-0.100000)"
fill="#000000" stroke="none">
<path d="M7348 15355 c-2 -1 -62 -6 -134 -9 -72 -4 -142 -9 -155 -11 -13 -2
-60 -6 -104 -9 -44 -4 -91 -8 -105 -10 -14 -3 -50 -7 -80 -11 -91 -10 -154
-18 -295 -40 -49 -7 -107 -16 -127 -19 -21 -3 -58 -10 -83 -16 -25 -6 -62 -13
-83 -16 -20 -3 -53 -9 -72 -14 -33 -9 -47 -12 -115 -25 -16 -3 -48 -11 -70
-17 -22 -5 -47 -11 -55 -13 -33 -7 -251 -65 -355 -95 -221 -63 -621 -204 -790
-279 -22 -10 -105 -47 -185 -82 -133 -58 -397 -188 -530 -261 -30 -17 -80 -44
-110 -61 -30 -16 -79 -45 -108 -63 -29 -19 -54 -34 -57 -34 -7 0 -190 -116
-335 -213 -141 -94 -467 -333 -534 -392 -6 -5 -34 -28 -61 -50 -28 -21 -52
-42 -55 -45 -3 -3 -36 -32 -75 -65 -458 -393 -954 -937 -1266 -1390 -19 -27
-36 -52 -39 -55 -3 -3 -9 -12 -15 -22 -5 -9 -44 -68 -87 -131 -86 -129 -225
-357 -283 -462 -21 -38 -58 -106 -83 -150 -57 -103 -184 -364 -256 -528 -279
-631 -473 -1315 -571 -2014 -3 -21 -7 -47 -10 -58 -2 -11 -7 -51 -10 -90 -4
-38 -8 -81 -10 -94 -2 -12 -7 -60 -10 -105 -4 -44 -8 -92 -10 -105 -26 -164
-26 -979 0 -1251 4 -46 17 -168 20 -200 2 -14 6 -52 9 -84 3 -33 8 -71 10 -85
3 -14 7 -48 11 -76 19 -156 93 -549 137 -720 11 -44 22 -91 24 -105 5 -28 41
-154 86 -302 16 -53 31 -105 33 -115 3 -18 31 -99 46 -138 4 -11 23 -65 42
-120 36 -101 96 -262 121 -319 243 -568 442 -942 730 -1371 104 -156 314 -445
374 -517 11 -12 57 -68 103 -123 46 -55 88 -105 93 -111 6 -6 36 -40 66 -74
196 -225 525 -549 740 -730 36 -30 67 -57 70 -60 3 -3 41 -35 85 -70 44 -36
85 -69 92 -75 30 -25 44 -36 138 -107 307 -231 543 -383 965 -621 169 -96 590
-294 791 -372 52 -21 108 -43 124 -50 63 -28 317 -114 480 -164 94 -28 184
-55 200 -60 28 -9 142 -39 175 -46 8 -2 71 -17 140 -34 69 -16 136 -32 150
-35 14 -2 48 -9 75 -15 90 -19 118 -24 195 -36 19 -3 58 -10 85 -15 28 -5 70
-11 95 -15 25 -3 54 -7 65 -9 11 -2 47 -7 80 -10 33 -4 71 -9 85 -11 33 -5 98
-12 185 -20 39 -3 88 -8 110 -10 276 -27 1083 -27 1246 0 13 2 60 6 104 9 44
4 91 8 105 10 14 3 50 7 80 11 91 10 154 18 295 40 50 7 107 16 127 19 21 3
58 10 83 16 25 6 62 13 83 16 20 3 53 9 72 14 19 5 47 12 63 15 15 3 39 7 55
10 15 3 45 11 67 17 22 5 47 11 55 13 17 4 212 55 305 80 176 48 620 198 639
216 6 5 20 9 32 9 13 0 25 4 28 9 3 4 34 19 68 31 35 13 86 33 113 46 263 117
347 156 488 228 89 46 191 100 225 120 35 20 66 36 68 36 2 0 28 16 58 35 30
19 57 35 59 35 5 0 160 95 270 165 66 42 118 77 291 197 29 21 229 170 271
203 58 46 269 218 275 225 3 3 39 35 80 70 491 427 1013 1032 1356 1570 37 58
79 123 94 145 38 56 132 218 242 420 60 108 200 397 258 530 28 66 60 138 70
160 9 22 41 103 70 180 29 77 58 154 65 170 79 189 262 863 311 1145 13 75 16
97 20 120 3 14 7 36 9 50 3 14 7 43 11 65 3 22 7 47 9 55 2 8 7 41 10 73 4 32
8 66 10 75 2 10 6 45 10 77 4 33 8 70 10 83 2 12 7 64 10 115 4 50 8 99 10
107 25 99 26 1153 1 1232 -3 7 -7 54 -10 103 -7 97 -11 137 -27 257 -5 43 -12
90 -13 105 -8 57 -67 407 -71 412 -1 3 -6 23 -9 43 -33 209 -163 685 -275
1003 -213 608 -506 1194 -865 1730 -101 151 -345 488 -365 505 -3 3 -35 41
-70 85 -36 44 -81 98 -100 120 -20 23 -63 72 -96 110 -198 227 -538 563 -750
740 -33 28 -62 53 -65 56 -42 48 -539 419 -710 531 -180 117 -301 190 -570
341 -169 96 -590 294 -791 372 -52 21 -107 43 -124 50 -63 28 -317 114 -480
164 -93 28 -183 55 -200 60 -28 9 -142 39 -175 46 -8 2 -71 17 -140 34 -69 16
-136 32 -150 35 -14 2 -50 10 -80 16 -30 6 -66 13 -80 16 -14 2 -36 6 -50 9
-14 3 -41 7 -60 10 -19 3 -57 10 -85 15 -27 5 -70 11 -95 15 -25 3 -54 7 -65
9 -11 2 -49 7 -85 11 -36 4 -74 9 -85 11 -10 2 -51 6 -90 10 -38 3 -77 8 -85
9 -9 2 -65 6 -125 10 -61 4 -121 9 -135 12 -29 4 -807 13 -812 8z m1552 -5214
c467 -78 869 -366 1087 -781 49 -94 104 -232 118 -297 2 -10 11 -48 19 -85 9
-37 20 -98 23 -135 10 -88 10 -2238 1 -2323 -4 -36 -9 -74 -11 -85 -3 -11 -8
-38 -11 -60 -23 -128 -119 -357 -210 -497 -231 -361 -635 -612 -1067 -665 -35
-4 -572 -8 -1194 -8 l-1130 0 -115 24 c-232 48 -423 132 -610 270 -76 55 -224
198 -270 259 -14 19 -29 39 -35 45 -23 27 -87 130 -123 199 -65 124 -113 260
-146 419 -18 83 -21 268 -20 1289 0 1178 -2 1124 38 1315 22 103 99 292 163
399 237 395 633 658 1085 719 132 19 2298 16 2408 -2z"/>
</g>
</svg>
